<?xml version="1.0" encoding="utf-8"?>
<!-- Generator: Adobe Illustrator 24.0.3, SVG Export Plug-In . SVG Version: 6.00 Build 0)  -->
<svg version="1.1" id="Layer_1" xmlns="http://www.w3.org/2000/svg" xmlns:xlink="http://www.w3.org/1999/xlink" x="0px" y="0px"
	 viewBox="0 0 256 256" style="enable-background:new 0 0 256 256;" xml:space="preserve">
<style type="text/css">
	.st0{fill:#EB4750;}
</style>
<path class="st0" d="M243.1,79.6c-6.3-14.9-15.3-28.3-26.8-39.7s-24.8-20.5-39.7-26.8c-15.4-6.5-31.8-9.8-48.7-9.8
	s-33.2,3.3-48.7,9.8c-14.9,6.3-28.3,15.3-39.7,26.8S19.1,64.7,12.8,79.6C6.3,95,3,111.4,3,128.3c0,16.9,3.3,33.2,9.8,48.7
	c6.3,14.9,15.3,28.3,26.8,39.7s24.8,20.5,39.7,26.8c15.4,6.5,31.8,9.8,48.7,9.8s33.2-3.3,48.7-9.8c14.9-6.3,28.3-15.3,39.7-26.8
	s20.5-24.8,26.8-39.7c6.5-15.4,9.8-31.8,9.8-48.7C253,111.4,249.7,95,243.1,79.6z M128,234.1c-28.3,0-54.9-11-74.8-31
	s-31-46.6-31-74.8s11-54.9,31-74.8c6.9-6.9,14.5-12.7,22.7-17.3v158.6h23.4v-55l77.9,82.3C162.1,229.9,145.4,234.1,128,234.1z
	 M202.8,203.1c-2.5,2.5-5.1,4.9-7.8,7.1l-74.6-79.5l55.2-59.4v-0.7h-29.1l-47.2,52.5V26.4c9.2-2.6,18.9-3.9,28.7-3.9
	c28.3,0,54.9,11,74.8,31c20,20,31,46.6,31,74.8S222.8,183.1,202.8,203.1z"/>
</svg>
